<?xml version="1.0" standalone="no"?><!DOCTYPE svg PUBLIC "-//W3C//DTD SVG 1.1//EN" "http://www.w3.org/Graphics/SVG/1.1/DTD/svg11.dtd"><svg t="1748531066996" class="icon" viewBox="0 0 1024 1024" version="1.1" xmlns="http://www.w3.org/2000/svg" p-id="20079" xmlns:xlink="http://www.w3.org/1999/xlink" width="200" height="200"><path d="M10.482245 59.583288a50.053975 49.151198 0 1 0 100.107949 0 50.053975 49.151198 0 1 0-100.107949 0Z" fill="#07B2D9" p-id="20080"></path><path d="M60.53622 251.222805a37.615712 37.615712 0 0 0-37.615713 37.615712v687.865994a37.615712 37.615712 0 0 0 75.231425 0V288.838517a37.615712 37.615712 0 0 0-37.615712-37.615712zM507.511192 915.265514c-27.63501 0-50.053975 22.01773-50.053975 49.151198s22.418965 49.101043 50.053975 49.101043c27.685164 0 50.104129-21.967576 50.104129-49.101043s-22.418965-49.151198-50.104129-49.151198zM507.561346 774.482441a37.615712 37.615712 0 0 0 37.615712-37.615712V49.000735a37.615712 37.615712 0 0 0-75.231424 0v687.865994c0 20.763873 16.851839 37.615712 37.615712 37.615712zM963.46378 108.684332c27.63501 0 50.053975-22.01773 50.053975-49.151198s-22.418965-49.151198-50.053975-49.151197c-27.685164 0-50.104129 22.01773-50.104129 49.151197s22.469119 49.151198 50.104129 49.151198zM963.46378 251.222805a37.615712 37.615712 0 0 0-37.615712 37.615712v687.865994a37.615712 37.615712 0 0 0 75.231425 0V288.838517a37.615712 37.615712 0 0 0-37.615713-37.615712z" fill="#07B2D9" p-id="20081"></path></svg>