<?xml version="1.0" standalone="no"?><!DOCTYPE svg PUBLIC "-//W3C//DTD SVG 1.1//EN" "http://www.w3.org/Graphics/SVG/1.1/DTD/svg11.dtd"><svg t="1748531428618" class="icon" viewBox="0 0 1024 1024" version="1.1" xmlns="http://www.w3.org/2000/svg" p-id="21354" xmlns:xlink="http://www.w3.org/1999/xlink" width="200" height="200"><path d="M828.231553 6.360248H260.134161A155.190062 155.190062 0 0 0 104.944099 161.550311v707.005217a155.444472 155.444472 0 0 0 155.444472 155.444472h567.842982a155.444472 155.444472 0 0 0 155.444472-155.444472V161.550311a155.190062 155.190062 0 0 0-155.444472-155.190063z m53.680497 862.19528a53.934907 53.934907 0 0 1-53.680497 53.680497H260.134161A53.934907 53.934907 0 0 1 206.708075 868.555528V161.550311a53.680497 53.680497 0 0 1 53.680496-53.426087h567.842982a53.680497 53.680497 0 0 1 53.680497 53.426087z" p-id="21355"></path><path d="M327.298385 238.382112m50.881988 0l0 0q50.881988 0 50.881987 50.881987l0 0q0 50.881988-50.881987 50.881988l0 0q-50.881988 0-50.881988-50.881988l0 0q0-50.881988 50.881988-50.881987Z" p-id="21356"></path><path d="M500.551553 238.382112m50.881987 0l181.394286 0q50.881988 0 50.881988 50.881987l0 0q0 50.881988-50.881988 50.881988l-181.394286 0q-50.881988 0-50.881987-50.881988l0 0q0-50.881988 50.881987-50.881987Z" p-id="21357"></path><path d="M327.298385 468.114286m50.881988 0l0 0q50.881988 0 50.881987 50.881987l0 0q0 50.881988-50.881987 50.881988l0 0q-50.881988 0-50.881988-50.881988l0 0q0-50.881988 50.881988-50.881987Z" p-id="21358"></path><path d="M500.551553 468.114286m50.881987 0l181.394286 0q50.881988 0 50.881988 50.881987l0 0q0 50.881988-50.881988 50.881988l-181.394286 0q-50.881988 0-50.881987-50.881988l0 0q0-50.881988 50.881987-50.881987Z" p-id="21359"></path><path d="M327.298385 697.84646m50.881988 0l0 0q50.881988 0 50.881987 50.881987l0 0q0 50.881988-50.881987 50.881988l0 0q-50.881988 0-50.881988-50.881988l0 0q0-50.881988 50.881988-50.881987Z" p-id="21360"></path><path d="M500.551553 697.84646m50.881987 0l181.394286 0q50.881988 0 50.881988 50.881987l0 0q0 50.881988-50.881988 50.881988l-181.394286 0q-50.881988 0-50.881987-50.881988l0 0q0-50.881988 50.881987-50.881987Z" p-id="21361"></path></svg>