<svg width="24" height="24" viewBox="0 0 24 24" fill="none" xmlns="http://www.w3.org/2000/svg">
<path d="M14.9377 16L18.5945 16L13.0087 10.4142L9.71586 13.7071C9.52833 13.8946 9.27397 14 9.00876 14C8.74354 14 8.48918 13.8946 8.30165 13.7071L2.00871 7.41414C1.61819 7.02361 1.61819 6.39045 2.00871 5.99992C2.39924 5.6094 3.0324 5.6094 3.42293 5.99992L9.00875 11.5857L12.3016 8.29286C12.4892 8.10532 12.7435 7.99996 13.0087 7.99996C13.2739 7.99996 13.5283 8.10532 13.7158 8.29286L20.0087 14.5858L20.0087 10.9289C20.0087 10.8944 20.0105 10.8603 20.0139 10.8267C20.0651 10.3224 20.491 9.92891 21.0087 9.92891C21.561 9.92891 22.0087 10.3766 22.0087 10.9289L22.0087 17C22.0087 17.5522 21.561 18 21.0087 18L14.9377 18C14.9031 18 14.869 17.9982 14.8354 17.9948C14.3312 17.9436 13.9377 17.5177 13.9377 17C13.9377 16.4477 14.3854 16 14.9377 16Z" fill="black"/>
</svg>
