<?xml version="1.0" standalone="no"?><!DOCTYPE svg PUBLIC "-//W3C//DTD SVG 1.1//EN" "http://www.w3.org/Graphics/SVG/1.1/DTD/svg11.dtd"><svg t="1748583091514" class="icon" viewBox="0 0 1024 1024" version="1.1" xmlns="http://www.w3.org/2000/svg" p-id="13956" xmlns:xlink="http://www.w3.org/1999/xlink" width="200" height="200"><path d="M511.744014 564.090573c108.435636 0 212.417116 43.005635 289.161695 119.545425l72.700002-72.700001a511.715854 511.715854 0 0 0-197.057962-122.258876 281.43092 281.43092 0 1 0-365.394302 13.311268A511.715854 511.715854 0 0 0 0.02816 972.746496a51.197184 51.197184 0 0 0 102.394368 0 409.372683 409.372683 0 0 1 409.321486-408.655923zM307.057672 281.942892a179.08775 179.08775 0 1 1 358.226697 0 179.08775 179.08775 0 0 1-358.226697 0z m665.256209 383.774092a51.197184 51.197184 0 0 0-51.197184 51.197184v102.34317h-340.256485l18.942959-18.430986a51.197184 51.197184 0 0 0 0-69.62817 51.197184 51.197184 0 0 0-70.140143 0l-105.415001 102.394368a51.197184 51.197184 0 0 0 0 69.62817l105.466199 102.291974a51.197184 51.197184 0 0 0 70.088945 0 51.197184 51.197184 0 0 0 0-69.62817l-18.942959-14.335212h391.453669a51.197184 51.197184 0 0 0 51.197184-51.145987v-153.489157a51.197184 51.197184 0 0 0-51.197184-51.197184z" fill="#2c2c2c" p-id="13957"></path></svg>