<?xml version="1.0" standalone="no"?><!DOCTYPE svg PUBLIC "-//W3C//DTD SVG 1.1//EN" "http://www.w3.org/Graphics/SVG/1.1/DTD/svg11.dtd"><svg t="1748582616730" class="icon" viewBox="0 0 1024 1024" version="1.1" xmlns="http://www.w3.org/2000/svg" p-id="7987" xmlns:xlink="http://www.w3.org/1999/xlink" width="200" height="200"><path d="M906.3 484.2L525.9 103.8c-3.7-3.7-8.7-5.8-13.9-5.8-5.2 0-10.2 2.1-13.9 5.8L117.7 484.2c-5.6 5.6-7.3 14.1-4.3 21.4 3 7.4 10.2 12.1 18.2 12.1h91.7v328c0 10.9 8.8 19.7 19.7 19.7h537.9c10.9 0 19.7-8.8 19.7-19.7v-328h91.7c8 0 15.1-4.8 18.2-12.1 3.1-7.3 1.4-15.8-4.2-21.4z m-125.4-5.8c-10.9 0-19.7 8.8-19.7 19.7v328H262.7v-328c0-10.9-8.8-19.7-19.7-19.7h-63.9L512 145.6l332.8 332.8h-63.9zM549.8 594c-10.9 0-19.7 8.8-19.7 19.7v165.5c0 10.9 8.8 19.7 19.7 19.7 10.9 0 19.7-8.8 19.7-19.7V613.7c0-10.8-8.8-19.7-19.7-19.7z m-75.6 0c-10.9 0-19.7 8.8-19.7 19.7v165.5c0 10.9 8.8 19.7 19.7 19.7 10.9 0 19.7-8.8 19.7-19.7V613.7c0-10.8-8.8-19.7-19.7-19.7z m-54.7-231c0 51 41.5 92.5 92.5 92.5s92.5-41.5 92.5-92.5-41.5-92.5-92.5-92.5-92.5 41.5-92.5 92.5z m92.5-53.1c29.3 0 53.1 23.8 53.1 53.1s-23.8 53.1-53.1 53.1-53.1-23.8-53.1-53.1 23.8-53.1 53.1-53.1z m0 159.5c-63.1 0-114.4 51.3-114.4 114.4v68c0 10.9 8.8 19.7 19.7 19.7 10.9 0 19.7-8.8 19.7-19.7v-68c0-41.4 33.7-75.1 75.1-75.1 41.4 0 75.1 33.7 75.1 75.1v68c0 10.9 8.8 19.7 19.7 19.7 10.9 0 19.7-8.8 19.7-19.7v-68c-0.2-63.1-51.5-114.4-114.6-114.4z" fill="#333333" p-id="7988"></path></svg>