<?xml version="1.0" standalone="no"?><!DOCTYPE svg PUBLIC "-//W3C//DTD SVG 1.1//EN" "http://www.w3.org/Graphics/SVG/1.1/DTD/svg11.dtd"><svg t="1748582666546" class="icon" viewBox="0 0 1024 1024" version="1.1" xmlns="http://www.w3.org/2000/svg" p-id="10063" xmlns:xlink="http://www.w3.org/1999/xlink" width="200" height="200"><path d="M870.4 324.096a28.16 28.16 0 0 0-11.264-12.8l-330.24-204.8a28.16 28.16 0 0 0-14.336-4.096 28.16 28.16 0 0 0-14.848 4.096l-329.728 204.8a28.16 28.16 0 0 0-18.944 26.624v551.424a28.16 28.16 0 0 0 28.16 28.16H846.336a28.16 28.16 0 0 0 28.16-28.16V337.408a28.16 28.16 0 0 0-4.096-13.312zM421.888 861.184v-184.32a89.6 89.6 0 0 1 178.688 0v184.32zM512 535.552a141.824 141.824 0 0 0-141.824 141.824v184.32H204.8V353.792l307.2-190.464 307.2 187.904v512h-165.888v-184.32a141.824 141.824 0 0 0-141.312-143.36z" fill="" p-id="10064"></path></svg>