<?xml version="1.0" standalone="no"?><!DOCTYPE svg PUBLIC "-//W3C//DTD SVG 1.1//EN" "http://www.w3.org/Graphics/SVG/1.1/DTD/svg11.dtd"><svg t="1748531698774" class="icon" viewBox="0 0 1024 1024" version="1.1" xmlns="http://www.w3.org/2000/svg" p-id="23252" xmlns:xlink="http://www.w3.org/1999/xlink" width="200" height="200"><path d="M154.497753 1017.014356a123.188603 123.188603 0 0 1-120.635616-118.72789v-771.50685A124.002192 124.002192 0 0 1 154.497753 7.013699h509.082302a124.535233 124.535233 0 0 1 121.252822 119.765917v98.191781a38.912 38.912 0 0 1-77.795945 0v-98.191781a47.300384 47.300384 0 0 0-43.625206-42.082191H154.497753a46.795397 46.795397 0 0 0-43.064109 42.082191v771.50685a45.813479 45.813479 0 0 0 43.064109 41.072219h508.829809a46.318466 46.318466 0 0 0 43.569096-41.072219v-101.193644a38.940055 38.940055 0 1 1 77.852054 0v101.193644a123.777753 123.777753 0 0 1-121.308931 118.72789z m637.320768-316.009205a38.603397 38.603397 0 0 1 0-54.903233l111.573917-111.489754a31.477479 31.477479 0 0 0 9.089754-22.023013 30.860274 30.860274 0 0 0-9.089754-21.798576l-111.573917-111.770301a38.799781 38.799781 0 0 1 54.903232-54.819069l111.573918 111.573918a108.908712 108.908712 0 0 1 0 153.768329l-111.573918 111.489753a38.26674 38.26674 0 0 1-27.465643 11.446357 38.883945 38.883945 0 0 1-27.353425-11.502466z m-324.369535-150.121206a38.940055 38.940055 0 0 1 0-77.852055h285.036713a38.940055 38.940055 0 0 1 0 77.852055z" fill="#1A1A1A" p-id="23253"></path></svg>