<?xml version="1.0" standalone="no"?><!DOCTYPE svg PUBLIC "-//W3C//DTD SVG 1.1//EN" "http://www.w3.org/Graphics/SVG/1.1/DTD/svg11.dtd"><svg t="1748583066206" class="icon" viewBox="0 0 1024 1024" version="1.1" xmlns="http://www.w3.org/2000/svg" p-id="12077" xmlns:xlink="http://www.w3.org/1999/xlink" width="200" height="200"><path d="M511.715968 564.069699c108.392205 0 212.332039 42.98841 289.045879 119.497544l72.670884-72.670884a511.510901 511.510901 0 0 0-196.979035-122.209908 281.318201 281.318201 0 1 0-365.247954 13.305937A511.510901 511.510901 0 0 0 0.205067 972.561946a51.176678 51.176678 0 0 0 102.353357 0 409.20872 409.20872 0 0 1 409.157544-408.492247zM307.111608 282.035024a179.016021 179.016021 0 1 1 358.083218 0 179.016021 179.016021 0 0 1-358.083218 0zM1008.436808 907.055797a51.176678 51.176678 0 0 0 0.511767-71.64735l-105.423957-102.251003a51.176678 51.176678 0 0 0-70.009696 0 51.176678 51.176678 0 0 0 0 69.549106l18.423604 18.423604H511.664791v-104.400424a51.176678 51.176678 0 0 0-102.30218 0v153.530035a51.176678 51.176678 0 0 0 51.176678 51.125502h390.785117l-18.423604 18.423604a51.176678 51.176678 0 0 0 0 69.600283 51.176678 51.176678 0 0 0 70.112049 0l105.372781-102.353357z" fill="#2c2c2c" p-id="12078"></path></svg>